<svg id="myImg" class="mainimage" style="fill:#0273a2" role="img" xmlns="http://www.w3.org/2000/svg" viewBox="0 0 1000 1000"><title>Medical Doctor SVG icon</title><g><g><path d="M458.7,685.2c-2.4,5.5-3.7,11.5-3.7,17.8c0,19.1,11.9,35.3,28.6,41.8c2,18.5,7.8,39.9,22.2,58.1c19.9,25.2,51.2,38.4,93,39.2c0.9,0,1.9,0,2.8,0c36.9,0,68-15.1,87.6-42.7c11.6-16.3,18.1-35.7,19.6-56.5c14.6-7.4,24.7-22.4,24.7-40c0-24.8-20.2-45-45-45c-24.8,0-45,20.2-45,45c0,21.3,14.8,39.1,34.7,43.7c-1.8,13.1-6.2,25.2-13.4,35.4c-14.2,20-37.7,30.9-65.3,30.1c-32.3-0.7-55.9-10-70-27.8c-9.3-11.7-13.6-25.8-15.5-38.9c18-5.9,31.1-22.6,31.1-42.6c0-6.4-1.3-12.4-3.7-17.8C723.5,548.9,763.1,427,763.1,347c0-17.7-7.4-28.5-13.7-34.5c-2-1.9-4.2-3.5-6.4-5c1.2-4.6,2.2-9.2,3-14c8.4-49.1-9.2-73-40.2-78.3C695.3,99.9,663.1,10,500,10c-162.2,0-195.3,89.9-205.9,205.1c-31,5.4-48.6,29.3-40.3,78.3c0.8,4.8,1.8,9.5,3,14c-2.2,1.4-4.3,3.1-6.4,5c-6.2,6-13.7,16.8-13.7,34.5C236.8,427,276.4,548.9,458.7,685.2z M595.9,292.4c0,15.2-12.4,27.6-27.6,27.6h-12.2c-15.2,0-27.6-12.4-27.6-27.6c0-15.2,12.4-27.6,27.6-27.6h4.4c9.8,5,20.3,9.5,31.3,13.3C594.4,282.3,595.9,287.2,595.9,292.4z M462,183c6.2,8.2,31.8,40,73,66.9c-7,3.5-13,8.6-17.5,15h-35.1c-8.6-12.1-22.7-20-38.6-20h-12.2c-26.2,0-47.6,21.3-47.6,47.6c0,26.2,21.3,47.6,47.6,47.6h12.2c26.2,0,47.6-21.3,47.6-47.6c0-2.6-0.4-5.1-0.8-7.6h18.8c-0.4,2.5-0.8,5-0.8,7.6c0,26.2,21.3,47.6,47.5,47.6h12.2c26.2,0,47.6-21.3,47.6-47.6c0-2.6-0.4-5.1-0.8-7.6c11.1,2.6,22.7,4.5,34.8,5.4c-15.6,100.2-70.9,173-149.9,173c-83.9,0-146.2-83.6-153.3-201.8C422.6,243.4,451.8,203.4,462,183z M471.4,292.4c0,15.2-12.4,27.6-27.6,27.6h-12.2c-15.2,0-27.6-12.4-27.6-27.6c0-15.2,12.4-27.6,27.6-27.6h12.2C459,264.8,471.4,277.2,471.4,292.4z M268.4,338.1c10.4,19.2,25.8,32.5,47.4,34.5c34.3,92.1,103.9,148.9,184.2,148.9c84,0,149.4-59,184.1-148.9c21.3-1.9,36.9-15.2,47.5-34.6c0.9,2,1.7,4.8,1.7,8.9c0,60.3-28.6,179.3-212.7,316.2c-6.2-3.2-13.1-5.2-20.6-5.2c-7.5,0-14.4,2-20.6,5.2C295.4,526.3,266.7,407.3,266.7,347C266.8,342.9,267.5,340.1,268.4,338.1z"></path><path d="M500,647.4c91.7-67.1,143.9-129.1,173.1-181.1c-1-0.6-1.9-1.2-2.9-1.8c-44.1,57.6-104.8,91.2-170.3,91.2c-66.8,0-127.9-33.3-171.7-90.5c-0.1,0-0.1,0.1-0.2,0.1c-0.4,0.3-0.9,0.6-1.3,0.8C356.1,518.3,408.3,580.2,500,647.4z"></path><path d="M846.4,845.7c-8.3-162-55.1-264.6-111-327c-10.4,17-22.7,34.6-37.1,52.6c39.9,49.4,78.4,133.5,85.8,277.6c0.3,5.4-1.6,8.8-2.7,10.1c-9,0.5-46.7,2.4-60.3,3.1v-62.8c0-3.8-1.4-7.3-3.7-10c-3.4,7.7-7.3,15-12.1,21.7c-4.6,6.5-9.8,12.1-15.4,17.4v35.2l-17.3,19.7c-19.5,22.1-65.1,37.1-125.9,42.2v-71.8c-23.3-7.6-42.2-20.4-56.6-38.6c-14.4-18.2-21.6-38.7-24.9-57.5c-4.4-2.8-8.4-6-12-9.7v177.8c-60.1-5.1-105.9-20.4-126.6-43.1L310,864.4v-65c0-8.6-7-15.6-15.6-15.6c-8.6,0-15.6,7-15.6,15.6v62.8c-13.4-0.7-50.6-2.6-60.3-3.1c-1.1-1.4-3-4.7-2.7-10.1c7.4-143.2,46.2-227.8,85.9-277.4c-14.5-18.1-26.8-35.6-37.2-52.7c-55.8,62.4-102.6,165.1-110.9,327c-2,39.3,24.4,73.1,59.1,75.4c1.2,0.1,67.8,3.5,67.8,3.5c39.5,43.4,117.9,65.4,218,65.4c94.3,0,179.5-18.4,220.9-65.4c0,0,66.6-3.4,67.9-3.5C822,918.8,848.4,885.1,846.4,845.7z"></path></g></g></svg>