<svg id="myImg" class="mainimage" style="fill:#0273a2" role="img" xmlns="http://www.w3.org/2000/svg" viewBox="0 0 1000 1000"><title>Bus SVG icon</title><path d="M949.2,702.9h-38.9c-0.5-90.1-73.8-163-164.4-163c-90.5,0-163.9,72.9-164.4,163H420.2c-0.5-90.1-73.8-163-164.4-163c-90.6,0-163.9,72.9-164.4,163c-45-0.1-81.5-36.5-81.5-81.3V255.5c0-44.9,36.6-81.4,81.7-81.4h520.9c3.3-0.4,6.4-0.9,9.9-0.9h204.2c22.5,0,44.5,8.2,49.2,18.7l84.6,187.8c16.9,5,29.5,19.9,29.5,38.4v244C990,684.7,971.7,702.9,949.2,702.9z M295.8,296.1c0-22.5-18.3-40.6-40.8-40.6H132.5c-22.5,0-40.8,18.2-40.8,40.6v81.4c0,22.5,18.3,40.7,40.8,40.7H255c22.5,0,40.8-18.2,40.8-40.7V296.1z M581.7,296.1c0-22.5-18.3-40.6-40.8-40.6H418.3c-22.5,0-40.8,18.2-40.8,40.6v81.4c0,22.5,18.3,40.7,40.8,40.7h122.5c22.5,0,40.8-18.2,40.8-40.7L581.7,296.1L581.7,296.1z M843.3,392l-42.9-124.5c-2.3-6.8-13.2-12.2-24.4-12.2h-51.6c-11.2,0-20.3,5.3-20.3,12.2V392c0,14.3,14.1,26.6,31.5,26.6h85.2C838.3,418.5,848.2,406.3,843.3,392z M256,580.8c68.2,0,123.4,55,123.4,123c0,67.9-55.2,122.9-123.4,122.9c-68.2,0-123.5-55-123.5-122.9C132.5,635.9,187.8,580.8,256,580.8z M254.6,743.2c22.6,0,40.8-18.2,40.8-40.7c0-22.5-18.3-40.7-40.8-40.7c-22.6,0-40.9,18.2-40.9,40.7C213.8,724.9,232,743.2,254.6,743.2z M745.9,580.8c68.2,0,123.4,55,123.4,123c0,67.9-55.3,122.9-123.4,122.9s-123.4-55-123.4-122.9C622.5,635.9,677.8,580.8,745.9,580.8z M744.6,743.2c22.6,0,40.9-18.2,40.9-40.7c0-22.5-18.3-40.7-40.9-40.7s-40.9,18.2-40.9,40.7C703.7,724.9,722,743.2,744.6,743.2z"></path></svg>