<svg id="myImg" class="mainimage" style="fill:#0273a2" role="img" xmlns="http://www.w3.org/2000/svg" viewBox="0 0 1000 1000"><title>Stethoscope SVG icon</title><path d="M794.6,139.1c0,14.6-11.8,26.4-26.4,26.4c-14.6,0-26.4-11.8-26.4-26.4c0-14.6,11.8-26.4,26.4-26.4C782.8,112.6,794.6,124.5,794.6,139.1z M897.2,139.1c0,63-45.4,115.6-105.2,126.9v468.9c0,140.7-114.5,255.2-255.2,255.2c-140.7,0-255.2-114.5-255.2-255.2V613.2c-75.8-11.6-134.1-77.2-134.1-156.2V184.7c-26.2-9.7-44.9-35-44.9-64.6V78.8c0-38,30.9-68.8,68.8-68.8c38,0,68.8,30.9,68.8,68.8v41.4c0,29.6-18.7,54.8-44.9,64.6v272.3c0,60.7,49.4,110.2,110.1,110.2s110.1-49.4,110.1-110.2V184.7c-26.2-9.7-44.9-35-44.9-64.6V78.8c0-38,30.9-68.8,68.8-68.8c38,0,68.8,30.9,68.8,68.8v41.4c0,29.6-18.7,54.8-44.9,64.6v272.3c0,79-58.3,144.6-134.1,156.2v121.6c0,114.3,93,207.3,207.3,207.3c114.3,0,207.3-93,207.3-207.3V265.9c-59.8-11.2-105.2-63.9-105.2-126.9C639.1,67.9,697,10,768.2,10S897.2,67.9,897.2,139.1z M418.7,120.2c0,11.6,9.4,21,21,21c11.6,0,21-9.4,21-21V78.8c0-11.6-9.4-21-21-21c-11.6,0-21,9.4-21,21V120.2z M192.6,78.8c0-11.6-9.4-21-21-21c-11.6,0-21,9.4-21,21v41.4c0,11.6,9.4,21,21,21c11.6,0,21-9.4,21-21V78.8z M849.4,139.1c0-44.8-36.5-81.3-81.3-81.3s-81.3,36.5-81.3,81.3c0,44.7,36.3,81.1,80.9,81.3c0.1,0,0.2,0,0.4,0c0.1,0,0.2,0,0.4,0C813.2,220.1,849.4,183.8,849.4,139.1z"></path></svg>