<svg id="myImg" class="mainimage" style="fill:#0273a2" role="img" xmlns="http://www.w3.org/2000/svg" viewBox="0 0 1000 1000"><title>Medical Assistance 24 Hours SVG icon</title><g><path d="M714.2,489.6H534.1V309.4c0-12.3-10.1-22.4-22.4-22.4H258.3c-12.4,0-22.4,10-22.4,22.4v180.3H55.7c-12.3,0-22.4,10-22.4,22.4v253.3c0,12.3,10,22.4,22.4,22.4h180.2v180c0,12.3,10,22.4,22.4,22.4h253.5c12.3,0,22.4-10,22.4-22.4v-180h180.2c12.3,0,22.4-10.1,22.4-22.4V512C736.6,499.6,726.5,489.6,714.2,489.6z M691.9,742.9H511.7c-12.4,0-22.4,10-22.4,22.4v180H280.6v-180c0-12.4-10-22.4-22.4-22.4H78.1V534.4h180.2c12.3,0,22.4-10.1,22.4-22.3V331.7h208.7V512c0,12.3,10,22.3,22.4,22.3h180.2V742.9z M767.5,253.3H601.8l0,0c0-22.3,5.6-41.3,16.8-57.1c11.2-15.8,32.4-34.7,63.4-56.6c13.9-9.7,23.7-18.5,29.4-26.7c5.7-8,8.4-17,8.4-26.9c0-10.8-3-19.6-9.3-26c-6.2-6.5-14.4-9.9-24.6-9.9c-10.9,0-19.4,4.1-25.5,12.3c-6.2,8.3-9,19.5-8.5,33.5h-46.9c-0.8-26.3,6.1-47.3,20.7-62.7C640.3,17.8,660.3,10,686.2,10c23.9,0,43.5,7.1,58.6,21.4c15.1,14.2,22.7,32.6,22.7,55c0,18.5-4.3,33.8-12.9,45.8c-8.6,12.1-24.8,25.8-48.4,40.9c-21.9,14-36.8,26.5-44.9,37.7l-0.2,0.4h106.4L767.5,253.3L767.5,253.3z M888.3,253.3h47v-53.5h27.4v-38.1h-27.4V10.1h-26.7h-26.7L792,158.4V179v20.7h96.2L888.3,253.3L888.3,253.3z M827.2,161.9l2.1-3.3l59-97.9v101.3L827.2,161.9L827.2,161.9L827.2,161.9z M692.3,417.9v-56.8h-49.1v56.8h-13h-13.1V292.6h13h13.1v47.1h49.1v-47.1h13h13.1v125.4h-13L692.3,417.9L692.3,417.9z M843.5,401.7l-0.6-20.5c-0.3-10.1-4-17.2-11.2-21.4c-1.2-0.8-2.7-1.4-4.2-2.1c2.7-0.9,5.1-2.3,7.3-3.8c8.2-5.5,12.2-14.3,12.2-26.4c0-10.5-3.6-18.9-11-25.2c-7.3-6.4-16.9-9.6-28.9-9.6h-50H744V418h13.2h13v-49.4h26.1c7.4,0,12.8,1.1,15.9,3.5c3.2,2.4,4.8,6.4,5,12l0.2,11.7c0,4.9,0.3,9.6,0.9,13.9c0.5,4.3,1.1,7.1,1.8,8.4H849v-3.4c-2.2-1-3.5-2.4-4.2-4.1C844,408.7,843.6,405.9,843.5,401.7z M815.8,343.2c-3.4,2.8-8.4,4.2-15.2,4.2h-30.3v-33.1h31.4c6.4,0,11.2,1.4,14.4,4.2c3.2,2.8,4.8,6.8,4.8,12.4C820.8,336.3,819.2,340.5,815.8,343.2z M966.6,383c0,11.8-4.6,21.2-13.9,28c-9.3,6.9-21.8,10.3-37.6,10.3c-15.9,0-28.3-3.6-37.2-11c-8.9-7.3-13.7-17.7-14.3-31.3h25.2c0.3,6.6,2.8,11.8,7.3,15.4c4.6,3.5,10.8,5.3,19.1,5.3c8.3,0,14.8-1.3,19.5-4.1c4.7-2.7,7-6.5,7-11.2c0-4.7-1.7-8.2-5-10.3c-3.3-2.3-10.3-4.6-21.2-6.9c-19.8-4.5-33.2-9.3-39.9-14.4c-6.6-5.1-9.9-13.1-9.9-23.9c0-12.1,4.4-21.8,13.2-28.9c8.7-7.1,20.7-10.7,35.7-10.7c14,0,25.4,3.7,34.3,11.1c8.8,7.4,13.8,17.3,14.8,29.9h-25.5c-0.4-6.1-3.1-10.7-7.8-14.2c-4.8-3.5-11-5.2-18.7-5.2c-6.6,0-11.9,1.4-15.6,4.4c-3.8,2.9-5.6,6.9-5.6,12.2c0,3.8,1.9,6.6,5.9,8.6c3.8,2,12.1,4.6,24.7,7.3c18.1,4.1,30.4,8.8,36.5,14.1C963.6,362.8,966.6,371.3,966.6,383z"></path></g></svg>